# xmcd CD database file
#
# Track frame offsets:
#	150
#	21337
#	35545
#	56737
#	76262
#	90625
#	113062
#	131657
#	153695
#
# Disc length: 2215 seconds
#
# Revision: 0
# Processed by: cddbd v1.5PL3 Copyright (c) Steve Scherf et al.
# Submitted via: CDex 1.51
#
DISCID=7108a509
DTITLE=Planet Thang - Beyond Appearance
DYEAR=1995
DGENRE=Jazz
TTITLE0=3D
TTITLE1=Affermative Action
TTITLE2=Planet Thanng
TTITLE3=Beyond Appearance
TTITLE4=Own Style
TTITLE5=Fact Counter Attack
TTITLE6=Do Or Die
TTITLE7=Jazz It Up
TTITLE8=Shout Outs
EXTD=YEAR: 1995
EXTT0=
EXTT1=
EXTT2=
EXTT3=
EXTT4=
EXTT5=
EXTT6=
EXTT7=
EXTT8=
PLAYORDER=
